<svg width="250" height="250" viewBox="0 0 250 250" fill="none" xmlns="http://www.w3.org/2000/svg">
<rect width="250" height="250" fill="white"/>
<path d="M125.001 0C55.9739 0 0 55.9636 0 125.001C0 180.23 35.8166 227.085 85.4833 243.614C91.7305 244.771 94.024 240.903 94.024 237.601C94.024 234.62 93.9081 224.773 93.8543 214.328C59.0789 221.89 51.7408 199.58 51.7408 199.58C46.0546 185.131 37.8617 181.29 37.8617 181.29C26.5204 173.531 38.7166 173.691 38.7166 173.691C51.2689 174.573 57.8783 186.572 57.8783 186.572C69.0271 205.682 87.1207 200.157 94.2538 196.963C95.3757 188.884 98.6152 183.37 102.19 180.248C74.4256 177.088 45.2391 166.369 45.2391 118.472C45.2391 104.825 50.1221 93.6742 58.1184 84.9203C56.8205 81.7719 52.5419 69.0582 59.3293 51.8402C59.3293 51.8402 69.8261 48.4806 93.7135 64.6533C103.685 61.8837 114.378 60.4947 125.001 60.4471C135.624 60.4947 146.326 61.8837 156.315 64.6533C180.174 48.4806 190.656 51.8402 190.656 51.8402C197.46 69.0582 193.179 81.7719 191.882 84.9203C199.896 93.6742 204.746 104.825 204.746 118.472C204.746 166.483 175.504 177.054 147.669 180.149C152.153 184.028 156.148 191.635 156.148 203.297C156.148 220.023 156.003 233.484 156.003 237.601C156.003 240.927 158.253 244.825 164.589 243.598C214.229 227.05 250 180.211 250 125.001C250 55.9636 194.034 0 125.001 0ZM46.817 178.067C46.5416 178.688 45.5646 178.874 44.6745 178.447C43.7679 178.04 43.2587 177.193 43.5526 176.57C43.8217 175.93 44.8008 175.752 45.7054 176.181C46.6141 176.589 47.1316 177.444 46.817 178.067ZM52.9656 183.553C52.3695 184.106 51.2041 183.849 50.4133 182.975C49.5957 182.104 49.4425 180.939 50.047 180.378C50.6617 179.825 51.7919 180.084 52.6116 180.955C53.4293 181.837 53.5887 182.994 52.9656 183.553ZM57.1838 190.573C56.4179 191.105 55.1656 190.606 54.3914 189.494C53.6256 188.383 53.6256 187.05 54.408 186.515C55.1842 185.981 56.4179 186.462 57.2025 187.565C57.9663 188.695 57.9663 190.028 57.1838 190.573ZM64.3177 198.702C63.6326 199.458 62.1733 199.255 61.1051 198.224C60.0122 197.216 59.7079 195.786 60.3952 195.03C61.0886 194.273 62.5562 194.486 63.6326 195.508C64.7172 196.514 65.0484 197.955 64.3177 198.702ZM73.5376 201.447C73.2354 202.426 71.8299 202.871 70.414 202.455C69.0003 202.026 68.075 200.88 68.3606 199.89C68.6546 198.905 70.0663 198.441 71.4925 198.886C72.9042 199.313 73.8315 200.451 73.5376 201.447ZM84.0302 202.611C84.0654 203.642 82.8648 204.497 81.3786 204.515C79.8841 204.548 78.6752 203.714 78.6587 202.7C78.6587 201.659 79.8323 200.812 81.3269 200.787C82.8131 200.758 84.0302 201.586 84.0302 202.611ZM94.338 202.216C94.5161 203.222 93.4831 204.255 92.0073 204.53C90.5562 204.795 89.2128 204.174 89.0286 203.176C88.8485 202.145 89.9 201.113 91.349 200.846C92.827 200.589 94.1497 201.193 94.338 202.216Z" fill="#ACA7B0"/>
</svg>
