<svg width="250" height="250" viewBox="0 0 250 250" fill="none" xmlns="http://www.w3.org/2000/svg">
<rect width="250" height="250" fill="white"/>
<circle cx="125" cy="125" r="125" fill="#ACA7B0"/>
<path d="M102.125 190.938C157.563 190.938 187.875 145 187.875 105.188C187.875 103.875 187.875 102.563 187.813 101.313C193.688 97.0625 198.813 91.75 202.875 85.6875C197.5 88.0625 191.688 89.6875 185.563 90.4375C191.813 86.6875 196.563 80.8125 198.813 73.75C193 77.1875 186.563 79.6875 179.688 81.0625C174.188 75.1875 166.375 71.5625 157.688 71.5625C141.063 71.5625 127.563 85.0625 127.563 101.687C127.563 104.062 127.813 106.375 128.375 108.562C103.313 107.312 81.125 95.3125 66.25 77.0625C63.6875 81.5 62.1875 86.6875 62.1875 92.1875C62.1875 102.625 67.5 111.875 75.625 117.25C70.6875 117.125 66.0625 115.75 62 113.5C62 113.625 62 113.75 62 113.875C62 128.5 72.375 140.625 86.1875 143.438C83.6875 144.125 81 144.5 78.25 144.5C76.3125 144.5 74.4375 144.312 72.5625 143.938C76.375 155.938 87.5 164.625 100.688 164.875C90.375 172.937 77.375 177.75 63.25 177.75C60.8125 177.75 58.4375 177.625 56.0625 177.313C69.25 185.938 85.125 190.938 102.125 190.938Z" fill="white"/>
</svg>
